<svg width="41" height="40" viewBox="0 0 41 40" fill="none" xmlns="http://www.w3.org/2000/svg">
<g clip-path="url(#clip0_30_543)">
<path d="M35.7941 9.41177C38.3889 9.41177 40.5 7.30071 40.5 4.70588C40.5 2.11106 38.3889 4.76837e-07 35.7941 4.76837e-07C33.1993 4.76837e-07 31.0882 2.11106 31.0882 4.70588C31.0882 7.30071 33.1993 9.41177 35.7941 9.41177ZM35.7941 2.35294C37.0915 2.35294 38.1471 3.40847 38.1471 4.70588C38.1471 6.00329 37.0915 7.05882 35.7941 7.05882C34.4967 7.05882 33.4412 6.00329 33.4412 4.70588C33.4412 3.40847 34.4967 2.35294 35.7941 2.35294ZM5.20588 15.2941C2.61106 15.2941 0.5 17.4052 0.5 20C0.5 22.5948 2.61106 24.7059 5.20588 24.7059C7.80071 24.7059 9.91177 22.5948 9.91177 20C9.91177 17.4052 7.80071 15.2941 5.20588 15.2941ZM5.20588 22.3529C3.90847 22.3529 2.85294 21.2974 2.85294 20C2.85294 18.7026 3.90847 17.6471 5.20588 17.6471C6.50329 17.6471 7.55882 18.7026 7.55882 20C7.55882 21.2974 6.50329 22.3529 5.20588 22.3529Z" fill="white"/>
<path d="M35.7941 15.2941C33.6054 15.2941 31.7609 16.7961 31.2371 18.8235H25.0569C24.6304 17.1723 23.3277 15.8696 21.6764 15.443V9.26281C23.7038 8.73904 25.2058 6.89457 25.2058 4.70579C25.2058 2.11096 23.0947 -9.72748e-05 20.4999 -9.72748e-05C18.3112 -9.72748e-05 16.4667 1.50186 15.943 3.52931H9.76274C9.23914 1.50194 7.39459 -1.88434e-05 5.20588 -1.88434e-05C2.61106 -1.88434e-05 0.5 2.11104 0.5 4.70586C0.5 7.30069 2.61106 9.41175 5.20588 9.41175C7.39459 9.41175 9.23914 7.90979 9.76282 5.88233H15.9431C16.3696 7.53355 17.6723 8.8363 19.3235 9.26288V15.443C17.2962 15.9668 15.7941 17.8113 15.7941 20.0001C15.7941 22.5949 17.9052 24.7059 20.5 24.7059C22.6887 24.7059 24.5333 23.204 25.057 21.1765H31.2372C31.3476 21.6023 31.5175 22.0103 31.7419 22.3886L22.8885 31.2418C22.1656 30.8132 21.3405 30.5875 20.5 30.5882C17.9052 30.5882 15.7941 32.6993 15.7941 35.2941C15.7941 37.8889 17.9052 40 20.5 40C23.0948 40 25.2059 37.8889 25.2059 35.2941C25.2066 34.4537 24.9809 33.6285 24.5523 32.9056L33.4056 24.0523C34.1286 24.4808 34.9537 24.7066 35.7941 24.7059C38.3889 24.7059 40.5 22.5948 40.5 20C40.5 17.4052 38.3889 15.2941 35.7941 15.2941ZM5.20588 7.05881C3.90847 7.05881 2.85294 6.00328 2.85294 4.70586C2.85294 3.40845 3.90847 2.35292 5.20588 2.35292C6.50329 2.35292 7.55882 3.40845 7.55882 4.70586C7.55882 6.00328 6.50329 7.05881 5.20588 7.05881ZM18.1471 4.70586C18.1471 3.40845 19.2026 2.35292 20.5 2.35292C21.7974 2.35292 22.8529 3.40845 22.8529 4.70586C22.8529 6.00328 21.7974 7.05881 20.5 7.05881C19.2026 7.05881 18.1471 6.00328 18.1471 4.70586ZM20.5 22.3529C19.2026 22.3529 18.1471 21.2974 18.1471 20C18.1471 18.7026 19.2026 17.647 20.5 17.647C21.7974 17.647 22.8529 18.7026 22.8529 20C22.8529 21.2974 21.7974 22.3529 20.5 22.3529ZM20.5 37.647C19.2026 37.647 18.1471 36.5915 18.1471 35.2941C18.1471 33.9967 19.2026 32.9412 20.5 32.9412C21.7974 32.9412 22.8529 33.9967 22.8529 35.2941C22.8529 36.5915 21.7974 37.647 20.5 37.647ZM35.7941 22.3529C34.4967 22.3529 33.4412 21.2974 33.4412 20C33.4412 18.7026 34.4967 17.647 35.7941 17.647C37.0915 17.647 38.1471 18.7026 38.1471 20C38.1471 21.2974 37.0915 22.3529 35.7941 22.3529ZM5.20588 30.5882C2.61106 30.5882 0.5 32.6993 0.5 35.2941C0.5 37.8889 2.61106 40 5.20588 40C7.80071 40 9.91177 37.8889 9.91177 35.2941C9.91177 32.6993 7.80071 30.5882 5.20588 30.5882ZM5.20588 37.647C3.90847 37.647 2.85294 36.5915 2.85294 35.2941C2.85294 33.9967 3.90847 32.9412 5.20588 32.9412C6.50329 32.9412 7.55882 33.9967 7.55882 35.2941C7.55882 36.5915 6.50329 37.647 5.20588 37.647ZM35.7941 30.5882C33.1993 30.5882 31.0882 32.6993 31.0882 35.2941C31.0882 37.8889 33.1993 40 35.7941 40C38.3889 40 40.5 37.8889 40.5 35.2941C40.5 32.6993 38.3889 30.5882 35.7941 30.5882ZM35.7941 37.647C34.4967 37.647 33.4412 36.5915 33.4412 35.2941C33.4412 33.9967 34.4967 32.9412 35.7941 32.9412C37.0915 32.9412 38.1471 33.9967 38.1471 35.2941C38.1471 36.5915 37.0915 37.647 35.7941 37.647Z" fill="white"/>
</g>
<defs>
<clipPath id="clip0_30_543">
<rect width="40" height="40" fill="white" transform="translate(0.5)"/>
</clipPath>
</defs>
</svg>
