<svg width="50" height="50" viewBox="0 0 50 50" fill="none" xmlns="http://www.w3.org/2000/svg">
<g clip-path="url(#clip0_58_133)">
<path d="M40.4304 14.5264C40.9697 14.5264 41.407 14.0892 41.407 13.5498V2.92969C41.407 1.31426 40.0927 0 38.4773 0H2.93042C1.31499 0 0.000732422 1.31426 0.000732422 2.92969V47.0703C0.000732422 48.6857 1.31499 50 2.93042 50H38.4773C40.0927 50 41.407 48.6857 41.407 47.0703V39.8758C41.407 39.3364 40.9697 38.8992 40.4304 38.8992C39.8912 38.8992 39.4539 39.3364 39.4539 39.8758V47.0703C39.4539 47.6088 39.0158 48.0469 38.4773 48.0469H2.93042C2.39194 48.0469 1.95386 47.6088 1.95386 47.0703V2.92969C1.95386 2.39121 2.39194 1.95312 2.93042 1.95312H38.4773C39.0158 1.95312 39.4539 2.39121 39.4539 2.92969V13.5498C39.4539 14.0892 39.8912 14.5264 40.4304 14.5264Z" fill="#1E1E1E"/>
<path d="M20.7036 5.27344C15.7496 5.27344 11.7192 9.30381 11.7192 14.2578C11.7192 16.8278 12.8042 19.1489 14.5397 20.788C14.5723 20.8228 14.6068 20.8557 14.6446 20.8856C16.2434 22.3484 18.371 23.2421 20.7035 23.2421C23.036 23.2421 25.1637 22.3483 26.7624 20.8856C26.7997 20.8557 26.8348 20.8231 26.8673 20.788C28.603 19.1489 29.688 16.8278 29.688 14.2578C29.688 9.30381 25.6576 5.27344 20.7036 5.27344ZM20.7036 21.2891C19.109 21.2891 17.6373 20.7547 16.4564 19.8566C17.3147 18.3347 18.9164 17.3828 20.7036 17.3828C22.4908 17.3828 24.0925 18.3347 24.9508 19.8566C23.7698 20.7547 22.2982 21.2891 20.7036 21.2891ZM19.1411 13.8672V13.2324C19.1411 12.3709 19.8421 11.6699 20.7036 11.6699C21.5651 11.6699 22.2661 12.3709 22.2661 13.2324V13.8672C22.2661 14.7287 21.5651 15.4297 20.7036 15.4297C19.8421 15.4297 19.1411 14.7287 19.1411 13.8672ZM26.3618 18.4261C25.6491 17.3671 24.6517 16.5311 23.4846 16.0143C23.9445 15.4198 24.2192 14.6752 24.2192 13.8672V13.2324C24.2192 11.2938 22.6422 9.7168 20.7036 9.7168C18.765 9.7168 17.188 11.2938 17.188 13.2324V13.8672C17.188 14.6752 17.4627 15.4198 17.9227 16.0143C16.7555 16.5311 15.7581 17.3671 15.0454 18.4261C14.1832 17.2588 13.6724 15.8171 13.6724 14.2578C13.6724 10.3808 16.8266 7.22656 20.7036 7.22656C24.5807 7.22656 27.7349 10.3808 27.7349 14.2578C27.7349 15.8171 27.224 17.2588 26.3618 18.4261ZM25.977 42.7734H20.7036C20.1644 42.7734 19.7271 43.2106 19.7271 43.75C19.7271 44.2894 20.1644 44.7266 20.7036 44.7266H25.977C26.5163 44.7266 26.9536 44.2894 26.9536 43.75C26.9536 43.2106 26.5163 42.7734 25.977 42.7734ZM25.977 37.3047H12.1099C11.5706 37.3047 11.1333 37.7419 11.1333 38.2812C11.1333 38.8206 11.5706 39.2578 12.1099 39.2578H25.977C26.5163 39.2578 26.9536 38.8206 26.9536 38.2812C26.9536 37.7419 26.5163 37.3047 25.977 37.3047ZM25.977 31.8359H12.1099C11.5706 31.8359 11.1333 32.2731 11.1333 32.8125C11.1333 33.3519 11.5706 33.7891 12.1099 33.7891H25.977C26.5163 33.7891 26.9536 33.3519 26.9536 32.8125C26.9536 32.2731 26.5163 31.8359 25.977 31.8359ZM8.6293 26.6533C8.44552 26.4706 8.19711 26.3678 7.93799 26.3672C7.68105 26.3672 7.4291 26.4717 7.24756 26.6533C7.06592 26.835 6.96143 27.0869 6.96143 27.3438C6.96143 27.6006 7.06582 27.8525 7.24756 28.0342C7.43121 28.2165 7.6792 28.3193 7.93799 28.3203C8.1958 28.3203 8.44678 28.2158 8.6293 28.0342C8.81094 27.8525 8.91553 27.6006 8.91553 27.3438C8.91553 27.0869 8.81103 26.835 8.6293 26.6533ZM8.6293 32.1221C8.44541 31.9396 8.19707 31.8368 7.93799 31.8359C7.68105 31.8359 7.43018 31.9404 7.24756 32.1221C7.06592 32.3037 6.96143 32.5557 6.96143 32.8125C6.96143 33.0693 7.06582 33.3213 7.24756 33.5029C7.43121 33.6853 7.6792 33.788 7.93799 33.7891C8.1958 33.7891 8.44678 33.6846 8.6293 33.5029C8.81094 33.3213 8.91553 33.0693 8.91553 32.8125C8.91553 32.5557 8.81103 32.3037 8.6293 32.1221ZM8.6293 37.5908C8.44541 37.4083 8.19707 37.3055 7.93799 37.3047C7.68105 37.3047 7.43018 37.4092 7.24756 37.5908C7.06592 37.7725 6.96143 38.0244 6.96143 38.2812C6.96143 38.5381 7.06582 38.79 7.24756 38.9717C7.43109 39.1542 7.67916 39.257 7.93799 39.2578C8.1958 39.2578 8.44775 39.1533 8.6293 38.9717C8.81094 38.79 8.91553 38.5381 8.91553 38.2812C8.91553 38.0244 8.81103 37.7725 8.6293 37.5908ZM25.977 26.3672H12.1099C11.5706 26.3672 11.1333 26.8044 11.1333 27.3438C11.1333 27.8831 11.5706 28.3203 12.1099 28.3203H25.977C26.5163 28.3203 26.9536 27.8831 26.9536 27.3438C26.9536 26.8044 26.5163 26.3672 25.977 26.3672ZM47.9492 12.7266C47.0005 12.1788 45.8952 12.0333 44.8368 12.3168C43.7786 12.6004 42.894 13.2791 42.3464 14.2278L30.0571 35.5133C29.9898 35.63 29.9473 35.7594 29.9323 35.8933L29.0673 43.6417C29.0521 43.7782 29.0659 43.9164 29.1077 44.0472C29.1495 44.1781 29.2185 44.2986 29.3101 44.401C29.4016 44.5034 29.5138 44.5853 29.6392 44.6414C29.7645 44.6975 29.9003 44.7266 30.0377 44.7267C30.2461 44.7267 30.4491 44.6601 30.6169 44.5364L36.8946 39.913C37.0031 39.8331 37.0939 39.7316 37.1612 39.6149L49.4504 18.3295C50.5812 16.3709 49.9078 13.8574 47.9492 12.7266ZM31.256 41.64L31.7077 37.5939L34.5341 39.2258L31.256 41.64ZM35.9581 37.7926L32.2369 35.6441L42.0987 18.5631L45.8199 20.7115L35.9581 37.7926ZM47.759 17.3528L46.7964 19.0201L43.0752 16.8717L44.0378 15.2044C44.1782 14.9596 44.3659 14.7451 44.5898 14.5732C44.8137 14.4014 45.0695 14.2757 45.3423 14.2034C45.6147 14.1296 45.8991 14.1105 46.1789 14.1474C46.4588 14.1842 46.7285 14.2762 46.9726 14.4181C47.2174 14.5585 47.4319 14.7461 47.6037 14.97C47.7755 15.194 47.9012 15.4497 47.9735 15.7226C48.0473 15.995 48.0664 16.2794 48.0296 16.5592C47.9927 16.839 47.9008 17.1088 47.759 17.3528Z" fill="#1E1E1E"/>
</g>
<defs>
<clipPath id="clip0_58_133">
<rect width="50" height="50" fill="white"/>
</clipPath>
</defs>
</svg>
