<svg width="50" height="50" viewBox="0 0 50 50" fill="none" xmlns="http://www.w3.org/2000/svg">
<path d="M48.5352 25.6044V25.4931C48.4616 25.5 48.3894 25.5181 48.3213 25.5468C46.9512 25.2128 43.2617 24.707 33.4346 23.3681V14.9414L38.3408 12.7744V17.1152C37.8622 17.243 37.4391 17.5251 37.137 17.9177C36.8349 18.3104 36.6708 18.7917 36.6699 19.2871V22.3632C36.6699 22.5166 36.7308 22.6636 36.8393 22.772C36.9477 22.8805 37.0947 22.9414 37.2481 22.9414H40.5889C40.7422 22.9414 40.8893 22.8805 40.9977 22.772C41.1061 22.6636 41.167 22.5166 41.167 22.3632V19.2871C41.1662 18.7918 41.0022 18.3106 40.7003 17.918C40.3984 17.5254 39.9755 17.2432 39.4971 17.1152V11.8876C39.4972 11.8621 39.4952 11.8367 39.4912 11.8115C39.4917 11.8056 39.4917 11.7997 39.4912 11.7939C39.4875 11.7705 39.4823 11.7473 39.4756 11.7246C39.4681 11.7002 39.459 11.6764 39.4483 11.6533L39.4424 11.6416C39.4325 11.6208 39.4214 11.6005 39.4092 11.581V11.5742C39.3953 11.5533 39.38 11.5334 39.3633 11.5146L39.3545 11.5039C39.3392 11.4873 39.3229 11.4716 39.3057 11.457L39.2998 11.4511C39.2797 11.4341 39.2585 11.4184 39.2363 11.4043H39.2305C39.2029 11.3871 39.1738 11.3724 39.1436 11.3603L24.3965 4.84175C24.3231 4.80895 24.2435 4.79199 24.1631 4.79199C24.0827 4.79199 24.0031 4.80895 23.9297 4.84175L9.1797 11.3593C9.07716 11.4044 8.98995 11.4784 8.92872 11.5722C8.86749 11.666 8.83489 11.7756 8.83489 11.8876C8.83489 11.9997 8.86749 12.1093 8.92872 12.2031C8.98995 12.2969 9.07716 12.3709 9.1797 12.416L14.8985 14.9414V20.6523L13.1836 20.4355C13.0641 20.4203 12.9428 20.4428 12.8367 20.4999C12.7306 20.5569 12.645 20.6457 12.5918 20.7539L0.937517 44.3632V44.371C0.927231 44.3913 0.918102 44.4122 0.910173 44.4335C0.910173 44.4414 0.910173 44.4492 0.90236 44.458C0.894548 44.4668 0.892595 44.4931 0.888689 44.5107C0.884782 44.5283 0.888689 44.5195 0.888689 44.5244C0.888689 44.541 0.888689 44.5585 0.881853 44.5761V44.5839C0.874831 44.6311 0.873847 44.6791 0.878923 44.7265C0.878463 44.7301 0.878463 44.7337 0.878923 44.7373C0.877993 44.746 0.877993 44.7549 0.878923 44.7636C0.878923 44.7724 0.884782 44.7812 0.887712 44.79C0.891562 44.8053 0.896456 44.8203 0.90236 44.8349C0.907864 44.8503 0.914389 44.8653 0.921892 44.8798C0.927751 44.8925 0.934587 44.9052 0.941423 44.9169C0.948259 44.9287 0.959001 44.9472 0.968767 44.9609L0.976579 44.9726C0.982617 44.9817 0.989137 44.9905 0.99611 44.999C1.0132 45.0183 1.03181 45.0363 1.05177 45.0527L1.07131 45.0712C1.08981 45.0853 1.10904 45.0983 1.12892 45.1103C1.13674 45.1152 1.14455 45.122 1.15334 45.1269C1.18238 45.1419 1.2124 45.155 1.24318 45.166H1.25685C1.28347 45.1743 1.31053 45.1811 1.33791 45.1865C1.35886 45.1905 1.38007 45.1931 1.40138 45.1943H1.48537L1.53322 45.1865H1.58205L34.2705 37.4023C34.3969 37.3717 34.5093 37.2994 34.5897 37.1973C34.6701 37.0951 34.7138 36.9688 34.7139 36.8388V32.0537C42.3828 29.0263 48.1231 26.7705 48.5381 26.6494C48.686 26.6498 48.8286 26.5943 48.9373 26.4939C49.046 26.3936 49.1127 26.2558 49.124 26.1084C49.1367 25.9101 49.1465 25.7812 48.5352 25.6044ZM40.0108 19.2871V21.789H37.8262V19.2871C37.8347 19.003 37.9535 18.7335 38.1574 18.5356C38.3613 18.3376 38.6343 18.227 38.9185 18.227C39.2026 18.227 39.4756 18.3376 39.6795 18.5356C39.8835 18.7335 40.0023 19.003 40.0108 19.2871ZM24.1631 6.00581L36.1797 11.3125H24.168C24.0147 11.3125 23.8676 11.3734 23.7592 11.4818C23.6508 11.5902 23.5899 11.7373 23.5899 11.8906C23.5899 12.0439 23.6508 12.191 23.7592 12.2994C23.8676 12.4078 24.0147 12.4687 24.168 12.4687H36.1797L24.1631 17.7734L10.8399 11.8876L24.1631 6.00581ZM23.9258 18.9335C23.9992 18.9663 24.0788 18.9833 24.1592 18.9834C24.2396 18.9835 24.3192 18.9665 24.3926 18.9335L32.2744 15.4521V26.1718C31.4492 26.5498 28.8233 27.5507 24.1592 27.5507C19.4951 27.5507 16.876 26.5498 16.0537 26.1718V15.455L23.9258 18.9335ZM13.4444 21.6357L14.8985 21.8212V26.5293C14.8992 26.6297 14.9257 26.7282 14.9755 26.8154C15.0252 26.9026 15.0966 26.9756 15.1826 27.0273C15.2344 27.0566 15.8027 27.3857 16.9404 27.7441L3.6133 41.5585L13.4444 21.6357ZM18.2149 28.0898C19.6524 28.4238 21.6231 28.707 24.1719 28.707H24.2061L5.61427 41.1494L18.2149 28.0898ZM33.5576 36.3906L9.08205 42.2177C16.8604 39.1259 26.0215 35.4912 33.5596 32.5107L33.5576 36.3906ZM6.31154 42.0791L26.3965 28.6308C30.9268 28.3095 33.0488 27.0859 33.1504 27.0273C33.2365 26.9756 33.3078 26.9026 33.3576 26.8154C33.4073 26.7282 33.4339 26.6297 33.4346 26.5293V24.5341C37.7793 25.1269 43.2813 25.8837 46.2617 26.3085C42.5625 27.7197 32.7236 31.5673 6.30763 42.0751L6.31154 42.0791Z" fill="#1E1E1E"/>
</svg>
