<svg width="50" height="50" viewBox="0 0 50 50" fill="none" xmlns="http://www.w3.org/2000/svg">
<path d="M40.3709 37.9199C42.5622 35.0325 43.9314 31.6094 44.3394 27.9832C44.7176 24.6172 44.2126 21.2311 42.9406 18.1186C44.433 16.7496 45.3857 14.8026 45.3857 12.6234C45.3857 8.49629 42.0283 5.13887 37.9012 5.13887C35.8329 5.13887 33.9585 5.98408 32.6027 7.3459C30.6823 6.47588 28.6476 5.89736 26.5275 5.65918C17.9772 4.6999 9.75395 9.26025 6.04633 17.0155C5.07749 19.0442 4.45757 21.2143 4.20327 23.4692C3.60083 28.8303 5.12094 34.1043 8.4851 38.3203C11.8503 42.5384 16.6543 45.1918 22.0154 45.7952C25.8503 46.2227 29.6971 45.5612 33.1493 43.867C35.1587 44.424 41.1811 46.3426 41.2469 46.3638L42.9914 46.9188L42.5001 45.1551C42.4363 44.9211 41.0497 39.941 40.3708 37.92L40.3709 37.9199ZM37.9012 7.11934C40.9356 7.11934 43.4053 9.58906 43.4053 12.6234C43.4053 15.6578 40.9356 18.1257 37.9012 18.1257C34.8668 18.1257 32.399 15.6579 32.399 12.6234C32.399 9.58897 34.8667 7.11934 37.9012 7.11934ZM33.2829 41.8537L32.9211 41.7609L32.5885 41.933C29.3974 43.575 25.8119 44.2287 22.236 43.8264C17.4009 43.2829 13.0668 40.8887 10.0343 37.0864C6.99995 33.2823 5.62778 28.5247 6.17221 23.6897C6.40044 21.6571 6.95932 19.6979 7.83344 17.8704C11.1754 10.875 18.6 6.75176 26.307 7.62793C28.0805 7.82646 29.7877 8.28936 31.4066 8.97881C30.796 10.0622 30.4186 11.2938 30.4186 12.6234C30.4186 16.7486 33.776 20.1061 37.9012 20.1061C39.1163 20.1061 40.2479 19.7875 41.2635 19.2717C42.2885 21.9668 42.6965 24.8712 42.3707 27.7627C41.9839 31.1994 40.6416 34.435 38.4853 37.1193L38.1275 37.5661L38.3344 38.0999C38.6767 38.9817 39.5413 41.9698 40.0962 43.9212C37.9205 43.2366 34.3736 42.1283 33.2828 41.8538L33.2829 41.8537Z" fill="white"/>
<path d="M30.4186 23.4283C30.4175 23.4273 30.4156 23.4276 30.4146 23.4267C29.8809 22.9026 28.883 21.9065 27.8348 20.7926C26.3611 19.228 25.5507 17.178 25.5507 15.0196V14.7006C25.5507 13.8631 25.2025 13.0528 24.5953 12.4745C23.9861 11.9001 23.1545 11.5714 22.3229 11.6371C20.9439 11.7106 19.7777 12.7027 19.4741 14.1146C19.4567 14.2248 19.0698 16.8512 19.0737 18.526C19.066 18.6227 18.9346 20.253 19.6655 21.7635C17.7122 21.7713 14.8248 21.7731 13.0455 21.7731C12.1984 21.7731 11.4249 22.1657 10.9259 22.8503C10.4269 23.535 10.2896 24.3898 10.5468 25.1963L13.4575 34.2705C14.1093 36.2993 15.9794 37.6628 18.0894 37.6628L24.8758 37.8059C24.9956 37.8078 25.1155 37.8098 25.2335 37.8098C26.8813 37.8098 28.5155 37.5699 30.0937 37.1L30.4186 37.003V38.6917H37.0405V21.1853H30.4186V23.4283ZM30.4186 34.9691L29.5289 35.2008C28.0336 35.6463 26.4782 35.857 24.9183 35.8255L18.1106 35.6824C17.6494 35.6833 17.1946 35.5738 16.7842 35.3632C16.3738 35.1526 16.0197 34.8469 15.7515 34.4717H20.1433V32.4912H14.9665L14.4653 30.9287H20.1433V28.9482H13.8302L13.3289 27.3855H20.1434V25.4053H12.6937L12.4324 24.591C12.3706 24.3937 12.4034 24.185 12.5253 24.0186C12.649 23.8504 12.8386 23.7536 13.0455 23.7536C13.3686 23.7536 20.9556 23.7536 21.7969 23.7246L22.5047 23.655L22.8566 22.2683L22.2687 21.8737C20.884 20.9378 21.0445 18.7194 21.0503 18.6131C21.0503 17.0099 21.4235 14.4705 21.4197 14.4705C21.5242 13.9928 21.938 13.6408 22.4273 13.6138C22.7271 13.6196 23.0133 13.7046 23.2318 13.9116C23.4504 14.1186 23.5703 14.3989 23.5703 14.7007V15.0197C23.5703 17.6848 24.5721 20.2164 26.392 22.1504C27.4634 23.2876 28.4807 24.3029 29.028 24.8405C29.4077 25.212 29.8998 25.4047 30.4186 25.4651V34.9691ZM32.399 23.1656H35.0602V36.7112H32.399V23.1656ZM36.9109 16.1819H38.8914V13.6136H41.4616V11.6332H38.8913V9.06289H36.9109V11.6332H34.3426V13.6137H36.9109V16.1819ZM14.177 4.86426L13.3144 3.08105C8.18359 5.56445 4.00996 9.75547 1.56055 14.8786L3.34756 15.7334C5.60449 11.0124 9.4502 7.15225 14.177 4.86426ZM45.5771 42.3817C45.4669 42.0568 45.3645 41.7513 44.4786 38.9296C46.9542 35.0692 48.3233 30.6076 48.4394 25.995L46.459 25.9447C46.3488 30.3427 45.0027 34.5897 42.5698 38.2275L42.3067 38.6221L42.4479 39.0746C43.4749 42.3469 43.5832 42.668 43.7012 43.0141L43.9255 43.6987L45.8093 43.0915L45.5771 42.3817ZM44.4102 45.2504L46.2983 44.6566L46.8202 46.3161L44.9319 46.9099L44.4102 45.2504Z" fill="white"/>
</svg>
