<svg width="50" height="50" viewBox="0 0 50 50" fill="none" xmlns="http://www.w3.org/2000/svg">
<path d="M47.0499 11.8L29.3999 4.50005C29.1999 4.40005 28.9999 4.40005 28.8499 4.50005L11.1499 11.8C10.8499 11.9 10.6999 12.2 10.6999 12.5C10.6999 12.8 10.8999 13.1 11.1499 13.2L17.6999 15.9V22.3C17.6999 23.5 18.3499 25.2 21.5499 26.4C23.5999 27.15 26.2999 27.6 29.1999 27.6C34.7999 27.6 40.4999 25.95 40.4999 22.3V15.9L43.5499 14.65V18.6C43.5499 19 43.8999 19.35 44.2999 19.35C44.6999 19.35 45.0499 19 45.0499 18.6V14L47.0999 13.15C47.3999 13.05 47.5499 12.75 47.5499 12.45C47.5499 12.15 47.2999 11.9 47.0499 11.8ZM29.0999 6.00005L44.7999 12.5L29.0999 19L13.3999 12.5L29.0999 6.00005ZM38.9499 22.3C38.9499 24.45 34.7499 26.1 29.1499 26.1C23.5499 26.1 19.1999 24.45 19.1999 22.3V16.5L28.7999 20.5C28.8999 20.55 28.9999 20.55 29.0999 20.55C29.1999 20.55 29.2999 20.55 29.3999 20.5L38.9999 16.5V22.3H38.9499ZM40.7999 32.1L29.2499 35.4501C28.8499 34.6 28.1499 33.9 27.1999 33.55L22.0499 31.55C21.1999 31.25 20.7499 30.65 20.1499 29.9L19.8499 29.55C17.8499 27.1 14.3499 26.7001 11.6999 27.6C11.6999 26.1 10.4499 24.85 8.8999 24.85H5.1999C3.6499 24.85 2.3999 26.1 2.3999 27.65V41.6501C2.3999 43.2001 3.6499 44.4501 5.1999 44.4501H8.8999C10.4499 44.4501 11.6499 43.2001 11.6999 41.7001L19.8499 45.05C19.8999 45.05 19.9499 45.1 19.9999 45.1C21.5499 45.45 22.8999 45.6 24.2499 45.6C26.9499 45.6 29.3999 44.9 32.5499 43.3L44.0999 37.4501C46.7999 36.1 46.7499 34.7001 46.4499 33.9501C45.7999 32.25 42.7999 31.55 40.7999 32.1ZM8.9499 42.9501H5.2499C4.5499 42.9501 3.9499 42.4001 3.9499 41.6501V27.65C3.9499 26.95 4.4999 26.35 5.2499 26.35H8.9499C9.6499 26.35 10.2499 26.9 10.2499 27.65V41.6501C10.2499 42.3501 9.6499 42.9501 8.9499 42.9501ZM43.3999 36.1L31.8499 41.9501C27.4999 44.1501 24.6999 44.5501 20.3999 43.6501L11.7499 40.1V29.2001C13.8999 28.2001 17.0999 28.4501 18.7499 30.4501L19.0499 30.8C19.7499 31.65 20.3999 32.4501 21.5999 32.9501L26.7499 34.9501C27.4499 35.2001 27.9499 35.8 28.0999 36.5C28.1499 36.85 28.1499 37.2001 27.9999 37.55C27.7999 38.05 27.4499 38.4501 26.9499 38.7001C26.4499 38.9501 25.8999 38.9501 25.3999 38.8L20.2999 37C19.8999 36.85 19.4999 37.05 19.3499 37.4501C19.1999 37.8501 19.3999 38.25 19.7999 38.4001L24.8499 40.2001C25.2499 40.3501 25.6499 40.4001 26.0499 40.4001C26.5499 40.4001 27.0999 40.3 27.5499 40.05C28.3999 39.65 29.0499 38.9501 29.3999 38.05C29.5499 37.7001 29.5999 37.3001 29.5999 36.9001L41.2499 33.5C42.6999 33.1 44.7999 33.7001 45.0999 34.4501C45.1999 34.9001 44.5499 35.5 43.3999 36.1Z" fill="#1E1E1E"/>
</svg>
