<svg width="50" height="50" viewBox="0 0 50 50" fill="none" xmlns="http://www.w3.org/2000/svg">
<g clip-path="url(#clip0_58_125)">
<path d="M16.4745 14.2968C10.8242 14.2968 6.24365 18.8773 6.24365 24.5276C6.24365 30.1779 10.8242 34.7584 16.4745 34.7584C22.1248 34.7584 26.7053 30.1779 26.7053 24.5276C26.7053 18.8773 22.1248 14.2968 16.4745 14.2968ZM24.046 20.691H20.3589C20.0063 18.9241 19.4555 17.4959 18.8931 16.3941C21.1462 17.0664 22.9958 18.6288 24.046 20.691ZM19.0322 24.5276C19.0322 25.2887 18.9752 25.9879 18.8968 26.659H14.0524C13.9738 25.9879 13.9167 25.2886 13.9167 24.5276C13.9167 23.7661 13.9728 23.067 14.0507 22.3962H18.8986C18.976 23.067 19.0322 23.7662 19.0322 24.5276ZM16.2264 16.0268C16.3105 16.0244 16.3895 16.0019 16.4745 16.0019C16.5603 16.0019 16.6397 16.0248 16.725 16.0273C17.3649 17.0089 18.143 18.5617 18.6141 20.691H14.3351C14.8085 18.5544 15.5894 17.0023 16.2264 16.0268ZM14.0559 16.3941C13.4955 17.4936 12.9443 18.9233 12.5914 20.691H8.90292C9.42588 19.663 10.1523 18.752 11.0381 18.0134C11.9239 17.2747 12.9506 16.7238 14.0559 16.3941ZM7.94879 24.5276C7.94879 23.7873 8.07327 23.0814 8.25145 22.3962H12.3324C12.2612 23.0714 12.2116 23.7737 12.2116 24.5276C12.2116 25.2819 12.2625 25.9833 12.3348 26.659H8.25145C8.07327 25.9738 7.94879 25.2678 7.94879 24.5276ZM8.90292 28.3642H12.5955C12.9519 30.135 13.5034 31.5755 14.0534 32.6604C11.8016 31.9876 9.95286 30.4257 8.90292 28.3642ZM16.7222 33.0283C16.6381 33.0309 16.5594 33.0533 16.4745 33.0533C16.3895 33.0533 16.3109 33.0308 16.2264 33.0283C15.6153 32.0884 14.8193 30.532 14.3373 28.3642H18.6119C18.1305 30.5306 17.3354 32.0863 16.7222 33.0283ZM18.8964 32.6604C19.4472 31.5744 19.9984 30.1351 20.3539 28.3642H24.046C22.9961 30.4254 21.1477 31.9872 18.8964 32.6604ZM20.6146 26.659C20.6866 25.9833 20.7373 25.2819 20.7373 24.5276C20.7373 23.7737 20.6882 23.0714 20.617 22.3962H24.6975C24.8757 23.0814 25.0002 23.7874 25.0002 24.5276C25.0002 25.2678 24.8757 25.9738 24.6975 26.659H20.6146ZM7.94879 39.8738H25.0002V41.579H7.94879V39.8738ZM35.988 30.8851L36.8708 27.5912L38.5179 28.0326L37.6349 31.3266L35.988 30.8851ZM32.0161 45.7048L35.105 34.1761L36.752 34.6174L33.663 46.1461L32.0161 45.7048Z" fill="#F6941E"/>
<path d="M46.3434 5.41296L26.5792 0.117015C26.2907 0.0394909 25.9933 0.000150124 25.6945 0C24.1888 0.000106571 22.8109 1.00497 22.4026 2.52851L20.62 9.18132H2.83331C1.89165 9.18132 1.12817 9.94469 1.12817 10.8865V44.9892C1.12817 45.931 1.89165 46.6944 2.83331 46.6944H22.5278L34.4279 49.883C34.7164 49.9605 35.0139 49.9999 35.3126 50C36.8183 50 38.1962 48.995 38.6046 47.4715L48.7551 9.5896C49.2426 7.77043 48.1627 5.90042 46.3434 5.41296ZM2.83331 44.9892V10.8865H28.4104C29.3508 10.8865 30.1155 11.6514 30.1155 12.5916V43.2841C30.1155 44.2243 29.3508 44.9892 28.4104 44.9892H2.83331ZM47.1082 9.14828L36.9577 47.0302C36.7579 47.7749 36.0815 48.295 35.3125 48.295C35.1643 48.295 35.0153 48.2752 34.8691 48.2359L28.9232 46.6427C30.5612 46.3938 31.8206 44.9919 31.8206 43.2842V29.7663L32.6939 30.0003L33.5769 26.7062L31.9296 26.2649L31.8206 26.6724V13.122L33.5607 13.5884L35.5772 20.1811L36.9888 20.5594L36.8552 14.4711L39.3492 15.1394L40.4453 17.0723L41.3865 17.3244L41.2246 14.6332L42.7104 12.3834L41.7692 12.1312L39.8538 13.2571C39.2331 13.091 38.2869 12.8374 37.3594 12.5888L40.5194 7.38325L39.1078 7.00492L34.0652 11.7062C33.0735 11.4405 31.9916 11.1504 31.4055 10.9936C30.8311 9.91997 29.7125 9.18143 28.4103 9.18143H22.3849L24.0492 2.97003C24.249 2.22542 24.9255 1.70535 25.6944 1.70525C25.8426 1.70525 25.9917 1.72507 26.1378 1.76429L45.9021 7.06024C46.1187 7.11762 46.3217 7.21738 46.4994 7.35376C46.6771 7.49013 46.826 7.66041 46.9375 7.85472C47.0501 8.04833 47.1231 8.26236 47.1524 8.4844C47.1817 8.70644 47.1667 8.93209 47.1082 9.14828Z" fill="#F6941E"/>
<path d="M35.9909 24.7323L36.4271 23.084L38.0474 23.5127L37.6112 25.161L35.9909 24.7323ZM39.2272 25.592L39.6634 23.9438L41.2837 24.3725L40.8475 26.0208L39.2272 25.592ZM32.7549 23.8751L33.191 22.2268L34.8113 22.6555L34.3752 24.3039L32.7549 23.8751Z" fill="#F6941E"/>
</g>
<defs>
<clipPath id="clip0_58_125">
<rect width="50" height="50" fill="white"/>
</clipPath>
</defs>
</svg>
