<svg width="49" height="46" viewBox="0 0 49 46" fill="none" xmlns="http://www.w3.org/2000/svg">
<path 
d="M16.9953 20.0241C17.3983 20.5834 17.8051 21.0383 18.1983 21.4781C18.9078 22.2716 19.4893 22.9242 19.8052 23.9219C19.3176 24.2782 18.9988 24.8531 18.9988 25.5026C18.9988 26.2619 19.4349 26.9199 20.0688 27.2436C20.0039 27.4402 19.9707 27.6459 19.9705 27.8529C19.9705 28.6896 20.5005 29.403 21.242 29.6815C21.1943 29.8513 21.1698 30.0268 21.1692 30.2032C21.1692 31.2827 22.0475 32.161 23.127 32.161H25.8759C26.9539 32.161 27.831 31.2827 27.831 30.2032C27.831 30.0226 27.8044 29.8483 27.7585 29.6821C28.4997 29.404 29.0297 28.6901 29.0297 27.853C29.0297 27.6401 28.9944 27.4356 28.9314 27.2437C29.5654 26.92 30.0014 26.262 30.0014 25.5027C30.0014 24.8535 29.6829 24.2788 29.1956 23.9224C29.5127 22.9241 30.0938 22.2712 30.8029 21.4775C31.1957 21.0379 31.6021 20.5832 32.0041 20.0253C33.146 18.4461 33.7496 16.5781 33.7496 14.6233C33.7496 9.52314 29.6004 5.37383 24.5002 5.37383C19.4 5.37383 15.2534 9.52314 15.2534 14.6233C15.2534 16.5807 15.8561 18.4486 16.9954 20.0243L16.9953 20.0241ZM22.6835 15.4946H21.9173C21.4948 15.4946 21.1511 15.1509 21.1511 14.7284C21.1511 14.306 21.4948 13.9649 21.9173 13.9649C22.3397 13.9649 22.6835 14.3074 22.6835 14.7284V15.4946ZM24.246 17.0571H24.7569V23.5448H24.246V17.0571ZM28.0463 25.1073C28.2591 25.1073 28.4389 25.2884 28.4389 25.5026C28.4389 25.7154 28.2591 25.8951 28.0463 25.8951H20.9539C20.7411 25.8951 20.5613 25.7154 20.5613 25.5026C20.5613 25.2884 20.7411 25.1073 20.9539 25.1073H28.0463ZM27.4671 27.8529C27.4671 28.0657 27.2873 28.2455 27.0745 28.2455H21.9282C21.714 28.2455 21.5329 28.0657 21.5329 27.8529C21.533 27.7481 21.5747 27.6477 21.6488 27.5735C21.7229 27.4994 21.8234 27.4577 21.9282 27.4576H27.0745C27.2873 27.4576 27.4671 27.6387 27.4671 27.8529ZM25.8759 30.5985H23.127C22.9127 30.5985 22.7317 30.4175 22.7317 30.2032C22.7318 30.0984 22.7735 29.998 22.8476 29.9239C22.9217 29.8498 23.0222 29.8081 23.127 29.808H25.8759C26.0887 29.808 26.2685 29.989 26.2685 30.2032C26.2685 30.4175 26.0887 30.5985 25.8759 30.5985ZM24.5001 6.93623C28.7387 6.93623 32.187 10.3846 32.187 14.6232C32.187 16.2472 31.6859 17.7986 30.7371 19.1106C30.3821 19.6032 30.0036 20.0268 29.6376 20.4364C28.8751 21.2898 28.09 22.1689 27.676 23.5448H26.3193V17.0571H27.0827C28.3668 17.0571 29.4115 16.0124 29.4115 14.7284C29.4115 13.4444 28.3669 12.4024 27.0827 12.4024C25.7985 12.4024 24.7568 13.4459 24.7568 14.7284V15.4946H24.2459V14.7284C24.2459 13.4458 23.2013 12.4024 21.9172 12.4024C20.6331 12.4024 19.5885 13.4459 19.5885 14.7284C19.5885 16.0109 20.6331 17.0571 21.9172 17.0571H22.6834V23.5448H21.3246C20.9116 22.169 20.1261 21.29 19.3631 20.4366C18.9968 20.027 18.6179 19.6032 18.2622 19.1096C17.316 17.8011 16.8158 16.2496 16.8158 14.6232C16.8158 10.3846 20.263 6.93623 24.5001 6.93623ZM26.3194 15.4946V14.7284C26.3194 14.3074 26.6619 13.9649 27.0828 13.9649C27.5037 13.9649 27.8491 14.3074 27.8491 14.7284C27.8491 15.1494 27.5054 15.4946 27.0828 15.4946H26.3194ZM10.3729 14.6232C10.3729 14.416 10.4552 14.2173 10.6017 14.0708C10.7482 13.9243 10.9469 13.842 11.1541 13.842H13.0836C13.2908 13.842 13.4895 13.9243 13.636 14.0708C13.7825 14.2173 13.8648 14.416 13.8648 14.6232C13.8648 14.8304 13.7825 15.0292 13.636 15.1757C13.4895 15.3222 13.2908 15.4045 13.0836 15.4045H11.1541C10.9469 15.4045 10.7482 15.3222 10.6017 15.1757C10.4552 15.0292 10.3729 14.8304 10.3729 14.6232ZM14.5105 5.73848C14.438 5.66595 14.3804 5.57983 14.3412 5.48505C14.3019 5.39027 14.2817 5.28868 14.2817 5.18608C14.2817 5.08349 14.3019 4.9819 14.3412 4.88712C14.3804 4.79234 14.438 4.70622 14.5105 4.63369C14.5831 4.56113 14.6692 4.50358 14.764 4.46431C14.8588 4.42504 14.9603 4.40482 15.0629 4.40482C15.1655 4.40482 15.2671 4.42504 15.3619 4.46431C15.4567 4.50358 15.5428 4.56113 15.6153 4.63369L16.9802 5.99854C17.0527 6.07107 17.1103 6.15718 17.1496 6.25196C17.1888 6.34675 17.209 6.44833 17.209 6.55093C17.209 6.65352 17.1888 6.75511 17.1496 6.84989C17.1103 6.94467 17.0527 7.03079 16.9802 7.10332C16.8276 7.25586 16.6277 7.33213 16.4277 7.33213C16.2277 7.33213 16.0278 7.25586 15.8753 7.10332L14.5105 5.73848ZM23.7188 3.20674V1.27725C23.7188 1.07005 23.8012 0.871332 23.9477 0.724819C24.0942 0.578306 24.2929 0.495996 24.5001 0.495996C24.7073 0.495996 24.906 0.578306 25.0525 0.724819C25.199 0.871332 25.2813 1.07005 25.2813 1.27725V3.20674C25.2813 3.41394 25.199 3.61265 25.0525 3.75917C24.906 3.90568 24.7073 3.98799 24.5001 3.98799C24.2929 3.98799 24.0942 3.90568 23.9477 3.75917C23.8012 3.61265 23.7188 3.41394 23.7188 3.20674ZM32.0199 7.10332C31.8734 6.95681 31.7911 6.75811 31.7911 6.55093C31.7911 6.34374 31.8734 6.14505 32.0199 5.99854L33.3848 4.63369C33.4573 4.56113 33.5434 4.50357 33.6382 4.4643C33.733 4.42503 33.8346 4.40481 33.9372 4.40481C34.0398 4.40481 34.1414 4.42503 34.2362 4.4643C34.331 4.50357 34.4171 4.56113 34.4897 4.63369C34.6361 4.7802 34.7184 4.9789 34.7184 5.18608C34.7184 5.39327 34.6361 5.59197 34.4897 5.73848L33.1248 7.10332C32.9723 7.25586 32.7724 7.33213 32.5724 7.33213C32.3724 7.33213 32.1725 7.25586 32.0199 7.10332ZM35.1353 14.6232C35.1353 14.416 35.2176 14.2173 35.3641 14.0708C35.5106 13.9243 35.7093 13.842 35.9165 13.842H37.846C38.0532 13.842 38.2519 13.9243 38.3984 14.0708C38.5449 14.2173 38.6272 14.416 38.6272 14.6232C38.6272 14.8304 38.5449 15.0292 38.3984 15.1757C38.2519 15.3222 38.0532 15.4045 37.846 15.4045H35.9165C35.7093 15.4045 35.5106 15.3222 35.3641 15.1757C35.2176 15.0292 35.1353 14.8304 35.1353 14.6232ZM45.1632 28.0666C46.1435 26.8692 46.6554 25.1728 46.6554 23.5316C46.6554 20.8661 44.4868 18.6977 41.8213 18.6977C39.1558 18.6977 36.9899 20.8662 36.9899 23.5316C36.9899 24.9072 37.3913 26.3804 38.0638 27.4723C38.7627 28.6072 39.7443 29.3367 40.8857 29.593C40.7343 29.7365 40.5928 29.8781 40.4592 30.0119L34.8232 35.6479H28.2316C26.7461 35.6479 25.5375 36.8564 25.5375 38.342C25.5375 38.745 25.6272 39.1273 25.7868 39.4709H23.2133C23.3776 39.1173 23.4627 38.732 23.4624 38.342C23.4624 36.8564 22.2551 35.6479 20.771 35.6479H14.1766L8.54072 30.0119C8.40713 29.8782 8.26572 29.7366 8.11426 29.5931C9.25654 29.3369 10.2385 28.6072 10.9372 27.4721C11.6089 26.3808 12.01 24.9077 12.01 23.5315C12.01 20.866 9.84268 18.6976 7.17861 18.6976C4.51455 18.6976 2.34463 20.8661 2.34463 23.5315C2.34463 25.1728 2.85654 26.8694 3.83711 28.0668C2.09561 28.379 0.769531 29.904 0.769531 31.734V44.7229C0.769531 44.9301 0.851841 45.1288 0.998354 45.2753C1.14487 45.4218 1.34358 45.5041 1.55078 45.5041C1.75798 45.5041 1.9567 45.4218 2.10321 45.2753C2.24972 45.1288 2.33203 44.9301 2.33203 44.7229V31.734C2.33203 30.5406 3.30283 29.5698 4.49619 29.5698C5.89092 29.5698 6.64111 30.3209 7.43525 31.116L13.5294 37.2103H20.771C21.3935 37.2103 21.8999 37.7179 21.8999 38.3419C21.8999 38.9659 21.3935 39.4708 20.771 39.4708H13.1692C12.7762 39.4708 12.4635 39.3412 12.1854 39.0631L7.10547 33.9805C7.0331 33.9072 6.94696 33.8489 6.85199 33.8091C6.75703 33.7692 6.65511 33.7485 6.55212 33.7482C6.44913 33.7478 6.34708 33.7679 6.25186 33.8071C6.15664 33.8464 6.07012 33.9041 5.99727 33.9769C5.92443 34.0497 5.8667 34.1362 5.82741 34.2314C5.78812 34.3266 5.76804 34.4286 5.76833 34.5316C5.76862 34.6346 5.78927 34.7365 5.8291 34.8315C5.86892 34.9265 5.92714 35.0127 6.00039 35.0851L8.61475 37.7009V44.7229C8.61475 44.9302 8.69706 45.1289 8.84357 45.2754C8.99008 45.4219 9.1888 45.5042 9.396 45.5042C9.6032 45.5042 9.80191 45.4219 9.94842 45.2754C10.0949 45.1289 10.1772 44.9302 10.1772 44.7229V39.2643L11.0804 40.1679C11.2187 40.3067 11.3701 40.4318 11.5325 40.5416V44.7229C11.5325 44.9302 11.6148 45.1289 11.7613 45.2754C11.9079 45.4219 12.1066 45.5042 12.3138 45.5042H36.6859C36.8931 45.5042 37.0919 45.4219 37.2384 45.2754C37.3849 45.1289 37.4672 44.9302 37.4672 44.7229V40.5416C37.6296 40.4318 37.781 40.3067 37.9193 40.1679L38.8225 39.2647V44.723C38.8225 44.9303 38.9048 45.129 39.0513 45.2755C39.1978 45.422 39.3965 45.5043 39.6037 45.5043C39.8109 45.5043 40.0096 45.422 40.1561 45.2755C40.3027 45.129 40.385 44.9303 40.385 44.723V37.7022L43.002 35.0853C43.0752 35.0129 43.1334 34.9267 43.1733 34.8317C43.2131 34.7368 43.2338 34.6348 43.2341 34.5318C43.2344 34.4289 43.2144 34.3268 43.1751 34.2316C43.1358 34.1364 43.0781 34.0499 43.0053 33.9771C42.9324 33.9042 42.8459 33.8465 42.7507 33.8073C42.6555 33.768 42.5535 33.7479 42.4505 33.7483C42.3475 33.7486 42.2455 33.7693 42.1506 33.8091C42.0556 33.849 41.9695 33.9072 41.8971 33.9805L36.8145 39.0631C36.5362 39.3413 36.2235 39.471 35.8306 39.471H28.2316C27.6076 39.471 27.1 38.9646 27.1 38.3421C27.1 37.7196 27.6076 37.2105 28.2316 37.2105H35.4704L41.5646 31.1161C42.3589 30.3209 43.109 29.5699 44.5064 29.5699C45.6982 29.5699 46.6679 30.5407 46.6679 31.7341V44.7229C46.6679 44.9302 46.7502 45.1289 46.8967 45.2754C47.0432 45.4219 47.2419 45.5042 47.4491 45.5042C47.6563 45.5042 47.855 45.4219 48.0015 45.2754C48.1481 45.1289 48.2304 44.9302 48.2304 44.7229V31.7341C48.2304 29.9034 46.9042 28.378 45.1631 28.0666H45.1632ZM7.17871 20.26C8.98115 20.26 10.4476 21.7275 10.4476 23.5314C10.4476 25.3111 9.56016 28.1346 7.17871 28.1346C4.92217 28.1346 3.90723 25.4429 3.90723 23.5314C3.90723 21.7275 5.3748 20.26 7.17871 20.26ZM35.8307 41.0333H35.9049V43.9416H13.0952V41.0333H35.8308H35.8307ZM38.5524 23.5314C38.5524 21.7275 40.0188 20.26 41.8213 20.26C43.6237 20.26 45.0929 21.7275 45.0929 23.5314C45.0929 25.4428 44.0778 28.1346 41.8213 28.1346C39.5647 28.1346 38.5524 25.4429 38.5524 23.5314Z" fill="white"/>
</svg>
